<?xml version="1.0" encoding="utf-8"?>
<!-- Generator: Adobe Illustrator 19.1.0, SVG Export Plug-In . SVG Version: 6.00 Build 0)  -->
<svg version="1.1" xmlns="http://www.w3.org/2000/svg" xmlns:xlink="http://www.w3.org/1999/xlink" x="0px" y="0px"
	 viewBox="0 0 1007 1008" style="enable-background:new 0 0 1007 1008;" xml:space="preserve">
<style type="text/css">
	.st0{display:none;}
	.st1{display:inline;fill:#231F20;}
	.st2{display:inline;fill:#FFFFFF;}
	.st3{display:inline;}
	.st4{fill:#FFFFFF;}
	.st5{fill:#231F20;}
</style>
<g id="Layer_2" class="st0">
	<path class="st1" d="M146.4,507.1c0,197.8,160.3,358.1,358.1,358.1c197.8,0,358.1-160.3,358.1-358.1
		c0-197.8-160.3-358.1-358.1-358.1C306.7,149,146.4,309.4,146.4,507.1z"/>
</g>
<g id="Layer_2_copy" class="st0">
	<path class="st1" d="M146.4,507.1c0,197.8,160.3,358.1,358.1,358.1c197.8,0,358.1-160.3,358.1-358.1
		c0-197.8-160.3-358.1-358.1-358.1C306.7,149,146.4,309.4,146.4,507.1z"/>
	<path class="st1" d="M146.4,507.1c0,197.8,160.3,358.1,358.1,358.1c197.8,0,358.1-160.3,358.1-358.1
		c0-197.8-160.3-358.1-358.1-358.1C306.7,149,146.4,309.4,146.4,507.1z"/>
	<path class="st1" d="M146.4,507.1c0,197.8,160.3,358.1,358.1,358.1c197.8,0,358.1-160.3,358.1-358.1
		c0-197.8-160.3-358.1-358.1-358.1C306.7,149,146.4,309.4,146.4,507.1z"/>
</g>
<g id="Layer_1_copy" class="st0">
	<path class="st2" d="M787.9,558.3c1.1-10.3,2.1-21.2,3.1-32.3c6.9-1.1,10.6-1.9,9.4-2c65-11.9,106.2-28.1-0.4-32.4
		c-2.1-0.1-4.2-0.3-6.4-0.4c1.5-21.7,2.7-43.2,3.7-62.2l0.2-3.6c0.1-1.4,0.1-1.9,0.1-4.5l0.1-13l0.1-24.9l0-42.8l-0.1-39.9
		l-0.9-24.4c0.4-2.5,0.7-5.5,0.9-9c0.3-7.5-0.4-13.2-1.9-17.7l0-0.9l-0.2,0.1c-7-19.4-29.3-11.6-42.1-5c-1.2-0.1-1.8,0.2-2.7,0.7
		c-1.8,1-35.9,19.9-84.9,47.8c-70.3,40.2-155.5,89.4-242.7,143.1c-21.8,13.5-43.7,27.2-65.5,41.4l-16.3,10.7l-11.4,7.7l-15.8,10.9
		c-20.7,14.5-41.4,29.7-55.5,43.6c-7,6.9-11.7,13.2-14.4,18.6c-2.7,5.4-3.7,10-4.1,14.2c-0.2,2.1-0.1,4.2,0.1,6.3
		c0.3,2.2,0.6,4.3,1.6,7.3c0.5,1.4,1.4,3.5,2.3,5.1c0.9,1.6,1.6,2.7,2.4,3.7c1.4,1.9,2.7,3.3,4.1,4.6c2.8,2.5,5.7,4.6,9.7,6.3
		c1,0.4,2.1,0.8,3.2,1.2c1.1,0.4,2.9,0.5,4.3,0.8l4.4,0.8l2.2,0.4c0.4,0,0.7,0.2,1.2,0.2l1.7-0.1l13.3-0.8l1.7-0.1l2.1-0.4l4.2-0.9
		l8.4-1.7c5.5-1,11.4-2.6,17.3-4.1l17.6-4.4l34.6-8.5l20-4.7l33-7.4c21.6-4.7,42.4-9,62.3-12.8c5.9-1.1,73.3-11.6,129.7-20.6
		l11.8-1.5l12.6-1.5c0,0,39.9-7,79.5-13c5.7-0.9,11.4-1.7,16.9-2.6c1.8,16,3.1,25.7,3.4,23.6C757.9,642.2,776.7,696.6,787.9,558.3z
		 M687.4,354.3l-55.6,66.2c-21,25.2-43.3,52.1-66.6,80.4l-13.7,2c-18.5,2.9-38.3,6.3-59,10.1c-20.8,3.9-42.5,8.2-65,13l-34.3,7.6
		l-24,5.6c-0.2,0.1-0.7,0.1-0.3-0.1l16.2-10.7c21.6-14.1,43.5-27.9,65.3-41.4c87.5-54,173.6-103.7,244.4-144.1
		c1.5-0.9,3-1.7,4.6-2.6L687.4,354.3z M699.9,489c-9.9,0.1-19,0.2-26.7,0.4c2.6-3.1,5.2-6.2,7.7-9.3l45.7-54.7
		c0,0.1,0.7-1.8,1.9-2.1c0.6-0.1,1.3,0.2,2.1,1.4l0.3,0.5l0.5,4.4l1,9.6l2,19.5c1,10.4,2.1,20.7,3.1,30.5
		C724.4,489,711.6,488.9,699.9,489z"/>
	<path class="st2" d="M787.9,558.3c1.1-10.3,2.1-21.2,3.1-32.3c6.9-1.1,10.6-1.9,9.4-2c65-11.9,106.2-28.1-0.4-32.4
		c-2.1-0.1-4.2-0.3-6.4-0.4c1.5-21.7,2.7-43.2,3.7-62.2l0.2-3.6c0.1-1.4,0.1-1.9,0.1-4.5l0.1-13l0.1-24.9l0-42.8l-0.1-39.9
		l-0.9-24.4c0.4-2.5,0.7-5.5,0.9-9c0.3-7.5-0.4-13.2-1.9-17.7l0-0.9l-0.2,0.1c-7-19.4-29.3-11.6-42.1-5c-1.2-0.1-1.8,0.2-2.7,0.7
		c-1.8,1-35.9,19.9-84.9,47.8c-70.3,40.2-155.5,89.4-242.7,143.1c-21.8,13.5-43.7,27.2-65.5,41.4l-16.3,10.7l-11.4,7.7l-15.8,10.9
		c-20.7,14.5-41.4,29.7-55.5,43.6c-7,6.9-11.7,13.2-14.4,18.6c-2.7,5.4-3.7,10-4.1,14.2c-0.2,2.1-0.1,4.2,0.1,6.3
		c0.3,2.2,0.6,4.3,1.6,7.3c0.5,1.4,1.4,3.5,2.3,5.1c0.9,1.6,1.6,2.7,2.4,3.7c1.4,1.9,2.7,3.3,4.1,4.6c2.8,2.5,5.7,4.6,9.7,6.3
		c1,0.4,2.1,0.8,3.2,1.2c1.1,0.4,2.9,0.5,4.3,0.8l4.4,0.8l2.2,0.4c0.4,0,0.7,0.2,1.2,0.2l1.7-0.1l13.3-0.8l1.7-0.1l2.1-0.4l4.2-0.9
		l8.4-1.7c5.5-1,11.4-2.6,17.3-4.1l17.6-4.4l34.6-8.5l20-4.7l33-7.4c21.6-4.7,42.4-9,62.3-12.8c5.9-1.1,73.3-11.6,129.7-20.6
		l11.8-1.5l12.6-1.5c0,0,39.9-7,79.5-13c5.7-0.9,11.4-1.7,16.9-2.6c1.8,16,3.1,25.7,3.4,23.6C757.9,642.2,776.7,696.6,787.9,558.3z
		 M687.4,354.3l-55.6,66.2c-21,25.2-43.3,52.1-66.6,80.4l-13.7,2c-18.5,2.9-38.3,6.3-59,10.1c-20.8,3.9-42.5,8.2-65,13l-34.3,7.6
		l-24,5.6c-0.2,0.1-0.7,0.1-0.3-0.1l16.2-10.7c21.6-14.1,43.5-27.9,65.3-41.4c87.5-54,173.6-103.7,244.4-144.1
		c1.5-0.9,3-1.7,4.6-2.6L687.4,354.3z M699.9,489c-9.9,0.1-19,0.2-26.7,0.4c2.6-3.1,5.2-6.2,7.7-9.3l45.7-54.7
		c0,0.1,0.7-1.8,1.9-2.1c0.6-0.1,1.3,0.2,2.1,1.4l0.3,0.5l0.5,4.4l1,9.6l2,19.5c1,10.4,2.1,20.7,3.1,30.5
		C724.4,489,711.6,488.9,699.9,489z"/>
	<path class="st2" d="M787.9,558.3c1.1-10.3,2.1-21.2,3.1-32.3c6.9-1.1,10.6-1.9,9.4-2c65-11.9,106.2-28.1-0.4-32.4
		c-2.1-0.1-4.2-0.3-6.4-0.4c1.5-21.7,2.7-43.2,3.7-62.2l0.2-3.6c0.1-1.4,0.1-1.9,0.1-4.5l0.1-13l0.1-24.9l0-42.8l-0.1-39.9
		l-0.9-24.4c0.4-2.5,0.7-5.5,0.9-9c0.3-7.5-0.4-13.2-1.9-17.7l0-0.9l-0.2,0.1c-7-19.4-29.3-11.6-42.1-5c-1.2-0.1-1.8,0.2-2.7,0.7
		c-1.8,1-35.9,19.9-84.9,47.8c-70.3,40.2-155.5,89.4-242.7,143.1c-21.8,13.5-43.7,27.2-65.5,41.4l-16.3,10.7l-11.4,7.7l-15.8,10.9
		c-20.7,14.5-41.4,29.7-55.5,43.6c-7,6.9-11.7,13.2-14.4,18.6c-2.7,5.4-3.7,10-4.1,14.2c-0.2,2.1-0.1,4.2,0.1,6.3
		c0.3,2.2,0.6,4.3,1.6,7.3c0.5,1.4,1.4,3.5,2.3,5.1c0.9,1.6,1.6,2.7,2.4,3.7c1.4,1.9,2.7,3.3,4.1,4.6c2.8,2.5,5.7,4.6,9.7,6.3
		c1,0.4,2.1,0.8,3.2,1.2c1.1,0.4,2.9,0.5,4.3,0.8l4.4,0.8l2.2,0.4c0.4,0,0.7,0.2,1.2,0.2l1.7-0.1l13.3-0.8l1.7-0.1l2.1-0.4l4.2-0.9
		l8.4-1.7c5.5-1,11.4-2.6,17.3-4.1l17.6-4.4l34.6-8.5l20-4.7l33-7.4c21.6-4.7,42.4-9,62.3-12.8c5.9-1.1,73.3-11.6,129.7-20.6
		l11.8-1.5l12.6-1.5c0,0,39.9-7,79.5-13c5.7-0.9,11.4-1.7,16.9-2.6c1.8,16,3.1,25.7,3.4,23.6C757.9,642.2,776.7,696.6,787.9,558.3z
		 M687.4,354.3l-55.6,66.2c-21,25.2-43.3,52.1-66.6,80.4l-13.7,2c-18.5,2.9-38.3,6.3-59,10.1c-20.8,3.9-42.5,8.2-65,13l-34.3,7.6
		l-24,5.6c-0.2,0.1-0.7,0.1-0.3-0.1l16.2-10.7c21.6-14.1,43.5-27.9,65.3-41.4c87.5-54,173.6-103.7,244.4-144.1
		c1.5-0.9,3-1.7,4.6-2.6L687.4,354.3z M699.9,489c-9.9,0.1-19,0.2-26.7,0.4c2.6-3.1,5.2-6.2,7.7-9.3l45.7-54.7
		c0,0.1,0.7-1.8,1.9-2.1c0.6-0.1,1.3,0.2,2.1,1.4l0.3,0.5l0.5,4.4l1,9.6l2,19.5c1,10.4,2.1,20.7,3.1,30.5
		C724.4,489,711.6,488.9,699.9,489z"/>
</g>
<g id="Layer_3" class="st0">
	<g class="st3">
		<g>
			<path class="st4" d="M718,269.5c-13.9,25.8-30.4,50.3-47,74.4c-12.6,18.3-25.7,36.2-39.1,53.9c2.3-3.1,4.7-6.1,7-9.2
				c-54,70.8-114,136.9-179,197.7c-34.3,32-70,62.5-107,91.4c3.1-2.4,6.1-4.8,9.2-7.2c-25.3,19.7-51.3,38.6-77.8,56.7
				c-9.9,6.8-17.4,15.1-20.6,26.9c-3.2,11.6-1.5,24.3,4.6,34.7c11.8,20.1,41.3,29.9,61.6,16C423.2,741.2,510,667.7,588.1,586
				c56.5-59,108.6-122.5,155.5-189.5c18.5-26.4,36.7-53.5,52.2-81.8c0-0.1,0.1-0.2,0.1-0.3c11.6-21.6,5.2-49-16.5-61.5
				C758.7,241,729.7,247.9,718,269.5L718,269.5z"/>
		</g>
	</g>
	<g class="st3">
		<g>
			<path class="st4" d="M718,269.5c-13.9,25.8-30.4,50.3-47,74.4c-12.6,18.3-25.7,36.2-39.1,53.9c2.3-3.1,4.7-6.1,7-9.2
				c-54,70.8-114,136.9-179,197.7c-34.3,32-70,62.5-107,91.4c3.1-2.4,6.1-4.8,9.2-7.2c-25.3,19.7-51.3,38.6-77.8,56.7
				c-9.9,6.8-17.4,15.1-20.6,26.9c-3.2,11.6-1.5,24.3,4.6,34.7c11.8,20.1,41.3,29.9,61.6,16C423.2,741.2,510,667.7,588.1,586
				c56.5-59,108.6-122.5,155.5-189.5c18.5-26.4,36.7-53.5,52.2-81.8c0-0.1,0.1-0.2,0.1-0.3c11.6-21.6,5.2-49-16.5-61.5
				C758.7,241,729.7,247.9,718,269.5L718,269.5z"/>
		</g>
	</g>
</g>
<g id="original" class="st0">
	<path class="st2" d="M760,508.5c-2.1-0.1-4.2-0.3-6.4-0.4c1.5-21.7,2.7-43.2,3.7-62.2l0.2-3.6c0.1-1.4,0.1-1.9,0.1-4.5l0.1-13
		l0.1-24.9l0-42.8l-0.1-29.4c1.1-25.5-0.2-41.8-0.1-43.8c0.3-7.5-0.4-13.2-1.9-17.7l0-0.9l-0.2,0.1c-7-19.4-29.3-11.6-42.1-5
		c-1.2-0.1-1.8,0.2-2.7,0.7c-0.6,0.3-5.2,2.9-13,7.2c-2.3,1-4.5,2.3-6.6,3.7c-15,8.4-37.8,21.2-65.3,36.9
		C555.6,349,470.4,398.2,383.2,452c-21.8,13.5-43.7,27.2-65.5,41.4l-16.3,10.7l-11.4,7.7l-15.8,10.9c-20.7,14.5-41.4,29.7-55.5,43.6
		c-7,6.9-11.7,13.2-14.4,18.6c-2.7,5.4-3.7,10-4.1,14.2c-0.2,2.1-0.1,4.2,0.1,6.3c0.3,2.2,0.6,4.3,1.6,7.3c0.5,1.4,1.4,3.5,2.3,5.1
		c0.9,1.6,1.6,2.7,2.4,3.7c1.4,1.9,2.7,3.3,4.1,4.6c2.8,2.5,5.7,4.6,9.7,6.3c1,0.4,2.1,0.8,3.2,1.2c1.1,0.4,2.9,0.5,4.3,0.8l4.4,0.8
		l2.2,0.4c0.4,0,0.7,0.2,1.2,0.2l1.7-0.1l13.3-0.8l1.7-0.1l2.1-0.4l4.2-0.9l8.4-1.7c5.5-1,11.4-2.6,17.3-4.1l17.6-4.4l34.6-8.5
		l20-4.7l33-7.4c13.8-3,27.2-5.8,40.3-8.5c-3.3,3.1-6.6,6.3-9.9,9.4c-33.1,31-67.6,60.5-103.3,88.4c-23.6,18.2-47.7,35.7-72.3,52.5
		c-9.9,6.8-17.4,15.1-20.6,26.9c-3.2,11.6-1.5,24.3,4.6,34.7c11.8,20.1,41.3,29.9,61.6,16C383.2,758,470,684.6,548.2,602.9
		c10.6-11.1,21-22.3,31.3-33.7c0.7-0.1,1.3-0.2,2-0.3l11.8-1.5l12.6-1.5c0,0,39.9-7,79.5-13c5.7-0.9,11.4-1.7,16.9-2.6
		c1.8,16,3.1,25.7,3.4,23.6c12.1,85,30.9,139.5,42.2,1.2c1.1-10.3,2.1-21.2,3.1-32.3c6.9-1.1,10.6-1.9,9.4-2
		C825.4,529,866.7,512.8,760,508.5z M387.5,543l-34.3,7.6l-24,5.6c-0.2,0.1-0.7,0.1-0.3-0.1l16.2-10.7
		c21.6-14.1,43.5-27.9,65.3-41.4c72.1-44.5,143.2-86.1,205.7-122c-6.9,9.5-13.8,19-20.9,28.4c-29.6,38.5-61,75.7-94,111.3
		c-15.5,2.5-31.7,5.3-48.7,8.5C431.8,533.8,410,538.2,387.5,543z M660,505.9c-9.8,0.1-18.8,0.2-26.5,0.4c2.3-2.8,4.5-5.6,6.8-8.4
		c0.3-0.3,0.5-0.6,0.8-0.9l45.7-54.7c0,0.1,0.7-1.8,1.9-2.1c0.6-0.1,1.3,0.2,2.1,1.4l0.3,0.5l0.5,4.4l1,9.6l2,19.5
		c1,10.4,2.1,20.7,3.1,30.5C684.5,505.9,671.6,505.8,660,505.9z"/>
</g>
<g id="CUTOUT">
	<g>
		<path class="st5" d="M501.4,13.8C230.7,13.8,11.2,233.3,11.2,504c0,126.8,48.1,242.4,127.1,329.4c2.1-1.8,4.4-3.4,6.8-5.1
			c33.7-23,66.7-46.9,99-71.8c48.9-38.3,96.1-78.7,141.4-121.1c4.5-4.2,9.1-8.5,13.6-12.8c-17.9,3.6-36.3,7.5-55.1,11.6l-45.1,10.2
			l-27.4,6.4L224,662.5l-24.1,6.1c-8.1,2.1-16.3,4.2-23.7,5.6l-11.5,2.4l-5.8,1.2l-2.9,0.6l-2.3,0.1l-18.3,1.2l-2.3,0.1
			c-0.6,0-1-0.2-1.6-0.2l-3-0.5l-6.1-1c-1.9-0.4-4.3-0.6-5.8-1.1c-1.6-0.5-3-1.1-4.4-1.7c-5.5-2.4-9.6-5.2-13.3-8.6
			c-1.9-1.8-3.7-3.6-5.6-6.3c-1-1.3-2-2.9-3.2-5c-1.2-2.2-2.4-5-3.1-6.9c-1.4-4.1-1.9-7-2.3-9.9c-0.3-2.9-0.4-5.7-0.1-8.6
			c0.5-5.8,1.9-12.1,5.6-19.5c3.6-7.4,10.1-16,19.7-25.5c19.3-19,47.6-39.8,76-59.7l21.7-14.9l15.7-10.5l22.4-14.7
			c29.8-19.4,59.8-38.3,89.7-56.7c119.4-73.6,236-140.9,332.2-195.9c37.6-21.4,68.8-39,89.4-50.5c2.9-1.9,5.9-3.6,9.1-5.1
			c10.6-5.9,16.9-9.4,17.8-9.9c1.3-0.7,2-1.1,3.7-1c17.6-9,48-19.8,57.7,6.8l0.3-0.2l0,1.2c2,6.1,3,14,2.6,24.2
			c-0.1,2.8,1.7,25.1,0.1,60l0.1,40.3l-0.1,58.6l-0.2,34.1l-0.1,17.8c0,3.6-0.1,4.4-0.2,6.2l-0.2,5c-1.3,26.1-3,55.5-5.1,85.2
			c2.9,0.2,5.9,0.3,8.7,0.5c146,5.9,89.5,28,0.6,44.4c1.6,0.2-3.5,1.2-12.9,2.8c-1.3,15.2-2.7,30.1-4.2,44.2
			c-15.4,189.3-41.1,114.8-57.7-1.6c-0.4,2.8-2.2-10.4-4.7-32.3c-7.6,1.1-15.4,2.3-23.2,3.5c-54.2,8.2-108.8,17.7-108.8,17.8
			l-17.3,2l-16.2,2c-0.9,0.1-1.8,0.3-2.8,0.4c-14.1,15.6-28.3,30.9-42.8,46.1C461.9,738.9,352.4,832.9,235,915.6
			c76.7,49.8,168.2,78.7,266.5,78.7c270.7,0,490.2-219.5,490.2-490.2C991.7,233.3,772.2,13.8,501.4,13.8z"/>
		<path class="st5" d="M681.6,316.1c-85.4,49.1-210.2,122.5-308.9,183.4c-29.9,18.5-59.9,37.4-89.4,56.7L261,570.9
			c-0.6,0.3,0.1,0.3,0.4,0.2l32.8-7.6l47-10.4c30.8-6.6,60.6-12.5,89-17.8c23.2-4.3,45.5-8.1,66.7-11.6
			c45.2-48.8,115.6-116,156.1-168.8C662.7,342.1,672.2,329.2,681.6,316.1z"/>
		<path class="st5" d="M765.7,502.6c-1.4-13.5-2.8-27.6-4.3-41.8l-2.7-26.6l-1.3-13.1l-0.6-6.1l-0.4-0.7c-1.1-1.7-2.1-2.1-2.9-2
			c-1.7,0.4-2.6,3-2.7,2.9l-62.6,74.9c-0.4,0.4-0.7,0.9-1.1,1.3c-3.1,3.8-6.2,7.6-9.3,11.5c10.5-0.2,22.9-0.5,36.3-0.5
			C730.2,502.2,747.7,502.3,765.7,502.6z"/>
	</g>
</g>
<g id="Layer_4" class="st0">
	<path class="st2" d="M800,491.6c-2.1-0.1-4.2-0.3-6.4-0.4c1.5-21.7,2.7-43.2,3.7-62.2l0.2-3.6c0.1-1.4,0.1-1.9,0.1-4.5l0.1-13
		l0.1-24.9l0-42.8l-0.1-39.9l-0.9-24.4c0.4-2.5,0.7-5.5,0.9-9c0.3-7.5-0.4-13.2-1.9-17.7l0-0.9l-0.2,0.1c-7-19.4-29.3-11.6-42.1-5
		c-1.2-0.1-1.8,0.2-2.7,0.7c-1.8,1-35.9,19.9-84.9,47.8c-70.3,40.2-155.5,89.4-242.7,143.1c-21.8,13.5-43.7,27.2-65.5,41.4
		l-16.3,10.7l-11.4,7.7l-15.8,10.9c-20.7,14.5-41.4,29.7-55.5,43.6c-7,6.9-11.7,13.2-14.4,18.6c-2.7,5.4-3.7,10-4.1,14.2
		c-0.2,2.1-0.1,4.2,0.1,6.3c0.3,2.2,0.6,4.3,1.6,7.3c0.5,1.4,1.4,3.5,2.3,5.1c0.9,1.6,1.6,2.7,2.4,3.7c1.4,1.9,2.7,3.3,4.1,4.6
		c2.8,2.5,5.7,4.6,9.7,6.3c1,0.4,2.1,0.8,3.2,1.2c1.1,0.4,2.9,0.5,4.3,0.8l4.4,0.8l2.2,0.4c0.4,0,0.7,0.2,1.2,0.2l1.7-0.1l13.3-0.8
		l1.7-0.1l2.1-0.4l4.2-0.9l8.4-1.7c5.5-1,11.4-2.6,17.3-4.1l17.6-4.4l34.6-8.5l20-4.7l33-7.4c18-3.9,35.5-7.6,52.3-10.8
		c-20.3,20.4-41.6,40.7-63.7,60.6c-39.9,35.8-82.3,70.1-125.9,101.5c-10.9,7.8-21.9,15.5-32.7,22.9c-10.2,6.9-20.4,13-30.4,18
		c-10,4.9-19.9,8.6-28.8,10.5c-4.4,1-8.6,1.4-12.3,1.5c-3.7,0.1-7.1-0.3-10-1c-3-0.7-5.6-1.7-8.3-3.2c-2.6-1.5-5.2-3.3-7.8-5.7
		c-5.1-4.8-10.1-11.7-14.4-19.8c-4.3-8.1-7.9-17.2-11-26.6c-3-9.4-5.5-19.2-7.5-29c-4.1-19.6-6.5-39.1-8.1-57.5
		c-1.6-18.4-2.4-35.8-2.7-51.8l-0.2-8.2l-0.1-6.4l0-11.7c0-7.3,0.1-13.6,0.2-18.7c0.2-10.3,0.4-16,0.4-15.9c0,0-0.5-12.7-0.7-31.8
		c-0.2-19.1-0.1-44.5,0.5-69.8c1.1-50.5,4.5-100.1,3.1-96c1.1-41.7,0.6-76.4-5.2-84.6c-2.9-4.1-7.3-1.6-13.3,10.2
		c-6,11.9-13.5,33-22,66.2c-5.5,19.5-10.8,41.2-15.5,63c-4.7,21.7-8.7,43.4-11.8,62.7c-6.3,38.6-9.1,67.7-9.1,67.7
		c0,0-0.2,6.1-0.5,17.2c-0.3,11.1-0.6,27.2-0.3,47.2l0.1,8.5c0.1,4.6,0.2,9.3,0.4,14.1c0.3,9.6,0.8,19.6,1.5,30
		c1.4,20.8,3.7,43.2,7.9,67.2c2.1,12,4.8,24.3,8.3,37.1c3.5,12.7,7.9,25.9,13.9,39.4c6.1,13.4,13.7,27.3,24.9,40.7
		c5.6,6.6,12.2,13.1,19.8,18.9c7.6,5.8,16.3,10.8,25.7,14.5c9.4,3.7,19.3,6,29,7c9.8,1,19.3,0.7,28.4-0.5c9.1-1.1,17.6-3.1,25.8-5.6
		c8.2-2.5,15.9-5.4,23.3-8.7c14.8-6.6,28.4-14.3,41.3-22.6l4.8-3.2l4.6-3.1l8.8-6.1c5.9-4.1,11.7-8.2,17.6-12.3
		c46.7-33.3,92.2-69.7,134.7-107.7c42.6-38,82.3-77.6,118.1-116.7c6.7-7.3,13.2-14.5,19.6-21.8c6.5-1,13-2.1,19.4-3.1l11.8-1.5
		l12.6-1.5c0,0,39.9-7,79.5-13c5.7-0.9,11.4-1.7,16.9-2.6c1.8,16,3.1,25.7,3.4,23.6c12.1,85,30.9,139.5,42.2,1.2
		c1.1-10.3,2.1-21.2,3.1-32.3c6.9-1.1,10.6-1.9,9.4-2C865.4,512.1,906.6,495.9,800,491.6z M427.4,526.1l-34.3,7.6l-24,5.6
		c-0.2,0.1-0.7,0.1-0.3-0.1l16.2-10.7c21.6-14.1,43.5-27.9,65.3-41.4c72.1-44.5,143.2-86.1,205.7-122
		c-10.3,15.1-23.2,33.2-38.2,53.1c-20.6,27.2-43.9,56-69.8,85.5c-17.5,2.8-36.1,5.9-55.6,9.6C471.7,516.9,450,521.3,427.4,526.1z
		 M699.9,489c-9.9,0.1-19,0.2-26.7,0.4c2.6-3.1,5.2-6.2,7.7-9.3l45.7-54.7c0,0.1,0.7-1.8,1.9-2.1c0.6-0.1,1.3,0.2,2.1,1.4l0.3,0.5
		l0.5,4.4l1,9.6l2,19.5c1,10.4,2.1,20.7,3.1,30.5C724.4,489,711.6,488.9,699.9,489z"/>
</g>
</svg>
